<?xml version="1.0"?>
<svg xmlns="http://www.w3.org/2000/svg" xmlns:xlink="http://www.w3.org/1999/xlink" version="1.1" viewBox="0 0 192 192" width="40px" height="40px"><g fill="none" fill-rule="nonzero" stroke="none" stroke-width="1" stroke-linecap="butt" stroke-linejoin="miter" stroke-miterlimit="10" stroke-dasharray="" stroke-dashoffset="0" font-family="none" font-weight="none" font-size="none" text-anchor="none" style="mix-blend-mode: normal"><path d="M0,192v-192h192v192z" fill="none"/><g><g id="surface1"><path d="M148.8,117.6c-9.2625,0 -16.8,-7.5375 -16.8,-16.8c0,-9.2625 7.5375,-16.8 16.8,-16.8c12.09375,0 16.8,2.90625 16.8,10.40625c0,10.125 -8.1375,23.19375 -16.8,23.19375z" fill="#e74c3c"/><path d="M148.8,86.4c13.29375,0 14.4,3.7875 14.4,8.00625c0,8.7 -7.25625,20.79375 -14.4,20.79375c-7.93125,0 -14.4,-6.46875 -14.4,-14.4c0,-7.93125 6.46875,-14.4 14.4,-14.4M148.8,81.6c-10.6125,0 -19.2,8.5875 -19.2,19.2c0,10.6125 8.5875,19.2 19.2,19.2c10.6125,0 19.2,-15 19.2,-25.59375c0,-10.6125 -8.5875,-12.80625 -19.2,-12.80625z" fill="#e67e22"/><path d="M43.2,117.6c-8.6625,0 -16.8,-13.06875 -16.8,-23.19375c0,-7.5 4.70625,-10.40625 16.8,-10.40625c9.2625,0 16.8,7.5375 16.8,16.8c0,9.2625 -7.5375,16.8 -16.8,16.8z" fill="#e74c3c"/><path d="M43.2,86.4c7.93125,0 14.4,6.46875 14.4,14.4c0,7.93125 -6.46875,14.4 -14.4,14.4c-7.14375,0 -14.4,-12.09375 -14.4,-20.79375c0,-4.21875 1.10625,-8.00625 14.4,-8.00625M43.2,81.6c-10.6125,0 -19.2,2.19375 -19.2,12.80625c0,10.59375 8.5875,25.59375 19.2,25.59375c10.6125,0 19.2,-8.5875 19.2,-19.2c0,-10.6125 -8.5875,-19.2 -19.2,-19.2z" fill="#e67e22"/><path d="M96,180c-26.83125,0 -55.2,-34.1625 -55.2,-52.5375v-62.6625h110.4v62.6625c0,18.375 -28.36875,52.5375 -55.2,52.5375z" fill="#ffffff"/><path d="M148.8,67.2v60.2625c0,17.53125 -27.13125,50.1375 -52.8,50.1375c-25.66875,0 -52.8,-32.60625 -52.8,-50.1375v-60.2625h105.6M153.6,62.4h-115.2v65.0625c0,20.0625 29.325,54.9375 57.6,54.9375c28.275,0 57.6,-34.875 57.6,-54.9375z" fill="#e67e22"/><path d="M115.2,112.8c-3.31875,0 -6.50625,-2.025 -8.325,-5.2875l-5.15625,-15.5625l-0.13125,-0.225c-1.10625,-1.81875 -3.1125,-2.9625 -5.26875,-2.9625c-2.175,0 -4.05,1.1625 -5.025,3.1125c-3.075,5.71875 -6.225,15.65625 -6.35625,16.0875c-1.21875,2.7 -4.66875,4.8375 -8.1375,4.8375h-19.5375c-3.6375,0 -6.65625,-2.23125 -7.70625,-5.68125l-8.75625,-21.1875v-1.93125h110.4v1.9125l-8.68125,20.98125c-1.125,3.675 -4.14375,5.90625 -7.78125,5.90625z" fill="#333333"/><path d="M148.40625,86.4l-8.1,19.575l-0.09375,0.225l-0.075,0.24375c-0.73125,2.4 -2.85,3.95625 -5.4,3.95625h-19.5375c-2.34375,0 -4.6125,-1.40625 -6.01875,-3.69375l-5.1,-15.2625l-0.16875,-0.50625l-0.2625,-0.45c-1.40625,-2.325 -3.8625,-3.84375 -6.5625,-4.0875h51.31875M95.55,86.4c-2.775,0.2625 -5.11875,1.85625 -6.3375,4.29375c-2.94375,5.45625 -5.8875,14.4375 -6.46875,16.2375c-0.99375,1.9875 -3.50625,3.46875 -5.94375,3.46875h-19.5375c-2.55,0 -4.66875,-1.55625 -5.4,-3.95625l-0.075,-0.225l-0.075,-0.24375l-8.11875,-19.575h51.95625M153.6,81.6h-115.2v4.8l8.86875,21.4125c1.29375,4.35 5.2125,7.3875 9.99375,7.3875h19.5375c4.35,0 8.68125,-2.60625 10.425,-6.50625c0,0 3.16875,-10.0875 6.225,-15.73125c0.61875,-1.2375 1.725,-1.8 2.86875,-1.8c1.25625,0 2.53125,0.675 3.20625,1.8l5.25,15.73125c2.175,3.9 6.075,6.50625 10.425,6.50625h19.5375c4.78125,0 8.7,-3.0375 9.99375,-7.3875l8.86875,-21.4125z" fill="#e67e22"/><path d="M72,144h48v4.8h-48z" fill="#e67e22"/><path d="M109.44375,129.6h-26.8875c-11.08125,0 -20.15625,8.64375 -20.15625,19.2v12.80625c0,0 0,25.59375 26.8875,25.59375h13.425c26.60625,0 26.8875,-25.59375 26.8875,-25.59375v-12.80625c0,-10.55625 -9.075,-19.2 -20.15625,-19.2zM115.2,163.2l-14.4,4.8v-19.2h-9.6v19.2l-14.4,-4.8v-14.4c0,-3.525 1.0875,-4.8 4.8,-4.8h28.8c3.7125,0 4.8,1.275 4.8,4.8z" fill="#000000"/><path d="M148.8,67.2v60.2625c0,10.51875 -10.10625,26.75625 -23.5125,37.725l-1.14375,0.9375l-0.4125,1.425c-2.8875,9.8625 -9.95625,14.85 -21.01875,14.85h-13.425c-11.2125,0 -18.3,-5.00625 -21.09375,-14.8875l-0.4125,-1.44375l-1.1625,-0.95625c-13.35,-10.96875 -23.41875,-27.15 -23.41875,-37.65v-60.2625h105.6M153.6,62.4h-115.2v65.0625c0,12.0375 10.6125,29.4 25.18125,41.3625c2.1375,7.575 8.23125,18.375 25.70625,18.375h13.425c17.25,0 23.4,-10.725 25.63125,-18.3c14.60625,-11.98125 25.25625,-29.3625 25.25625,-41.4375z" fill="#e67e22"/><path d="M38.4,52.8h115.2v4.8h-115.2z" fill="#e67e22"/><path d="M96,74.0625c-74.2125,0 -87.225,-14.775 -88.8,-17.08125v-1.78125h33.375l4.8,-48h101.25l4.8,48h33.375v1.8375c-1.3125,2.00625 -13.63125,17.025 -88.8,17.025z" fill="#333333"/><path d="M144.45,9.6l4.8,48h31.65c-5.34375,4.25625 -24.24375,14.0625 -84.9,14.0625c-60.20625,0 -79.3125,-9.75 -84.825,-14.0625h31.575l4.8,-48h96.9M148.8,4.8c0,0 -34.0875,0 -52.74375,0c-18.675,0 -52.85625,0 -52.85625,0l-4.8,48h-33.6v4.8c0,0 6.91875,18.8625 91.2,18.8625c84.69375,0 91.2,-18.8625 91.2,-18.8625v-4.8h-33.6z" fill="#e67e22"/><path d="M43.21875,52.8h105.5625l-1.93125,-19.2h-101.7z" fill="#e74c3c"/></g></g></g></svg>
